<?xml version="1.0" standalone="no"?>
<!DOCTYPE svg PUBLIC "-//W3C//DTD SVG 20010904//EN"
 "http://www.w3.org/TR/2001/REC-SVG-20010904/DTD/svg10.dtd">
<svg version="1.0" xmlns="http://www.w3.org/2000/svg"
 width="1024.000000pt" height="1024.000000pt" viewBox="0 0 1024.000000 1024.000000"
 preserveAspectRatio="xMidYMid meet">

<g transform="translate(0.000000,1024.000000) scale(0.100000,-0.100000)"
fill="#000000" stroke="none">
<path d="M2435 6133 c-9 -21 -140 -342 -292 -713 -152 -371 -320 -783 -374
-914 -55 -132 -97 -241 -95 -243 2 -2 21 17 42 43 195 239 383 445 517 566 79
71 107 104 123 143 12 27 81 196 154 375 73 179 136 329 140 333 4 5 36 -62
71 -147 35 -86 67 -156 72 -156 5 0 41 19 80 43 40 23 101 56 137 72 36 16 69
33 74 37 8 6 -65 196 -188 488 l-44 105 -201 3 -201 2 -15 -37z"/>
<path d="M4949 5587 c-104 -70 -47 -217 84 -217 44 0 53 4 88 39 33 33 39 45
39 81 0 36 -6 48 -39 81 -35 35 -44 39 -88 39 -36 0 -60 -7 -84 -23z"/>
<path d="M3663 5593 c9 -2 23 -2 30 0 6 3 -1 5 -18 5 -16 0 -22 -2 -12 -5z"/>
<path d="M3730 5590 c-12 -8 -12 -10 5 -10 11 0 27 5 35 10 12 8 12 10 -5 10
-11 0 -27 -5 -35 -10z"/>
<path d="M3960 5460 l0 -100 165 0 165 0 0 -440 0 -440 110 0 110 0 0 440 0
440 160 0 160 0 0 100 0 100 -435 0 -435 0 0 -100z"/>
<path d="M8260 5368 l0 -108 -65 0 -65 0 0 -90 0 -90 65 0 65 0 0 -213 c0
-251 9 -298 66 -346 47 -38 101 -51 211 -51 138 0 133 -3 133 99 l0 87 -80 -1
c-118 0 -114 -7 -118 230 l-3 195 100 0 101 0 0 90 0 90 -100 0 -100 0 0 108
0 107 -105 0 -105 0 0 -107z"/>
<path d="M3374 5444 c-18 -14 -18 -15 4 -4 12 6 22 13 22 15 0 8 -5 6 -26 -11z"/>
<path d="M3229 5343 c-13 -16 -12 -17 4 -4 16 13 21 21 13 21 -2 0 -10 -8 -17
-17z"/>
<path d="M3130 5253 c-36 -30 -98 -87 -137 -125 l-73 -70 158 -391 158 -392
203 -3 c161 -2 202 0 198 10 -3 7 -77 182 -165 388 -87 206 -183 435 -213 507
-30 73 -56 132 -59 132 -3 0 -34 -25 -70 -56z"/>
<path d="M5499 5251 c-198 -63 -309 -277 -255 -491 32 -127 103 -212 222 -267
53 -25 70 -28 164 -28 113 0 165 16 237 71 39 30 113 120 113 138 0 18 -183
91 -189 75 -9 -28 -75 -89 -108 -100 -78 -25 -175 16 -214 92 -42 84 -34 209
17 277 75 97 223 95 283 -5 14 -23 29 -43 32 -43 19 -1 179 82 179 92 -1 24
-69 107 -115 138 -102 70 -245 90 -366 51z"/>
<path d="M6233 5251 c-29 -10 -70 -30 -92 -46 -39 -27 -101 -106 -101 -130 0
-14 184 -68 188 -55 8 24 49 64 78 76 66 28 155 10 188 -37 9 -14 16 -43 16
-70 l0 -47 -127 -4 c-101 -4 -140 -10 -187 -28 -67 -26 -127 -75 -150 -124
-23 -49 -21 -140 5 -193 70 -144 296 -180 427 -67 22 18 42 34 45 34 3 0 4
-18 3 -40 l-1 -40 98 0 97 0 0 273 c0 331 -5 356 -84 433 -40 39 -65 54 -112
67 -81 23 -222 22 -291 -2z m277 -478 c0 -47 -40 -115 -84 -142 -79 -49 -186
-10 -186 68 0 79 51 110 183 111 l87 0 0 -37z"/>
<path d="M7610 5254 c-148 -54 -247 -192 -257 -358 -9 -142 28 -247 119 -332
70 -65 141 -95 244 -102 149 -9 263 37 343 138 23 29 41 55 41 60 0 13 -164
83 -168 72 -15 -45 -86 -94 -153 -107 -42 -8 -113 9 -150 36 -29 20 -55 69
-65 118 l-6 31 277 0 277 0 -4 98 c-3 87 -8 107 -36 165 -36 73 -96 132 -170
168 -63 30 -224 37 -292 13z m228 -173 c35 -25 56 -58 67 -108 l7 -33 -176 0
-175 0 14 46 c25 85 86 127 176 121 38 -2 66 -10 87 -26z"/>
<path d="M4924 5251 c-2 -2 -4 -177 -4 -388 l0 -383 108 0 107 0 -2 387 -3
387 -101 0 c-55 1 -102 -1 -105 -3z"/>
<path d="M6859 5256 c-1 0 -3 -175 -5 -388 l-3 -388 110 0 109 0 0 225 c0 248
4 272 58 317 44 37 95 51 159 45 l54 -6 -3 97 -3 97 -52 3 c-37 2 -67 -3 -103
-19 -48 -21 -109 -76 -111 -102 -2 -26 -17 41 -18 81 l-1 43 -95 -2 c-52 -1
-96 -2 -96 -3z"/>
<path d="M2649 5213 c-13 -16 -12 -17 4 -4 9 7 17 15 17 17 0 8 -8 3 -21 -13z"/>
<path d="M2569 5153 c-13 -16 -12 -17 4 -4 9 7 17 15 17 17 0 8 -8 3 -21 -13z"/>
<path d="M2469 5073 c-13 -16 -12 -17 4 -4 9 7 17 15 17 17 0 8 -8 3 -21 -13z"/>
<path d="M2404 5018 l-19 -23 23 19 c21 18 27 26 19 26 -2 0 -12 -10 -23 -22z"/>
<path d="M2845 4998 l-40 -43 43 40 c39 36 47 45 39 45 -2 0 -21 -19 -42 -42z"/>
<path d="M2714 4858 l-29 -33 33 29 c17 17 32 31 32 33 0 8 -8 1 -36 -29z"/>
<path d="M2629 4763 c-13 -16 -12 -17 4 -4 9 7 17 15 17 17 0 8 -8 3 -21 -13z"/>
<path d="M2574 4698 l-19 -23 23 19 c21 18 27 26 19 26 -2 0 -12 -10 -23 -22z"/>
<path d="M2529 4643 l-24 -28 28 24 c25 23 32 31 24 31 -2 0 -14 -12 -28 -27z"/>
<path d="M2489 4593 c-13 -16 -12 -17 4 -4 16 13 21 21 13 21 -2 0 -10 -8 -17
-17z"/>
<path d="M2449 4543 c-13 -16 -12 -17 4 -4 9 7 17 15 17 17 0 8 -8 3 -21 -13z"/>
<path d="M2260 4280 c-9 -6 -10 -10 -3 -10 6 0 15 5 18 10 8 12 4 12 -15 0z"/>
</g>
</svg>
